<?xml version="1.0" encoding="UTF-8"?>
<svg width="50px" height="33px" viewBox="0 0 50 33" version="1.1" xmlns="http://www.w3.org/2000/svg" xmlns:xlink="http://www.w3.org/1999/xlink">
    <title>logo-modo-black</title>
    <g id="👌-Symbols" stroke="none" stroke-width="1" fill="none" fill-rule="evenodd">
        <g id="Fragments/Logo/modo" fill="#000000">
            <g id="logo-modo-black">
                <path d="M9.14635508,16.6003746 C9.16891603,13.0088074 12.1634257,10.1036972 15.8536664,10.1036972 C19.5439071,10.1036972 22.5384169,13.0088074 22.5609777,16.6003746 L22.5609777,32.5497517 C22.5609777,32.7982792 22.3574709,32.9997505 22.1064325,32.9997505 L18.747234,32.9997505 C18.4961955,32.9997505 18.2926887,32.7982792 18.2926887,32.5497517 L18.2926887,16.6413837 C18.2926887,15.3284974 17.2006165,14.2640431 15.8536664,14.2640431 C14.5067163,14.2640431 13.4146441,15.3284974 13.4146441,16.6413837 L13.4146441,32.5497517 C13.4146441,32.7982792 13.2111373,32.9997505 12.9600988,32.9997505 L9.60090033,32.9997505 C9.34986193,32.9997505 9.14635508,32.7982792 9.14635508,32.5497517 L9.14635508,16.6003746 Z M27.4390223,16.6003746 C27.4615832,13.0088074 30.4560928,10.1036972 34.1463337,10.1036972 C37.8365743,10.1036972 40.8304744,13.008213 40.853645,16.5997802 L40.853645,32.5497517 C40.853645,32.7982792 40.6501382,32.9997505 40.3990997,32.9997505 L37.0399011,32.9997505 C36.7888628,32.9997505 36.585356,32.7982792 36.585356,32.5497517 L36.585356,16.6413837 C36.585356,15.3284974 35.4932838,14.2640431 34.1463337,14.2640431 C32.7993836,14.2640431 31.7073114,15.3284974 31.7073114,16.6413837 L31.7073114,32.5497517 C31.7073114,32.7982792 31.5038046,32.9997505 31.252766,32.9997505 L27.8935677,32.9997505 C27.6425291,32.9997505 27.4390223,32.7982792 27.4390223,32.5497517 L27.4390223,16.6003746 Z M4.26830159,32.5498265 L4.26829086,32.5498265 C4.26829086,32.79835 4.06479054,33 3.81375634,33 L0.454555979,33 C0.454527207,33 0.454498439,33 0.454469668,33 C0.203431262,33 0,32.7984538 0,32.5499261 L0.00305950733,14.8477139 C0.17135212,6.6197197 7.06647113,0 15.5487846,0 C19.1042708,0 22.3810987,1.16311649 25,3.12026652 C27.6189014,1.16311649 30.8957293,0 34.4512155,0 C42.933529,0 49.8286479,6.6197197 50,14.8477139 L50,32.5499263 L50,32.5499369 C50,32.7984644 49.7964825,33 49.5454442,33 L46.1862436,33 C45.9352095,33 45.7317092,32.79835 45.7317092,32.5498265 L45.7316985,16.0470849 C45.7316985,9.81011793 40.5445056,4.75469183 34.1463377,4.75469183 C30.6109732,4.75469183 27.4469501,6.29996668 25.321951,8.73377455 C25.3160537,8.74051291 25.3099343,8.74753312 25.3035877,8.75483044 C25.2903977,8.77001916 25.2760646,8.78419696 25.2607113,8.79724216 C25.0927955,8.93991461 24.8398457,8.92081247 24.6957319,8.75457634 C22.5707328,6.30888172 19.3993927,4.75469183 15.8536625,4.75469183 C9.45488473,4.75469183 4.26830159,9.81011793 4.26830159,16.0470849 L4.26830159,32.5498265 Z"></path>
            </g>
        </g>
    </g>
</svg>